<svg width="276" height="32" viewBox="0 0 276 32" fill="none" xmlns="http://www.w3.org/2000/svg">
<path d="M76.1329 0.281067C65.8577 0.281067 59.2681 6.42389 59.2681 16.029C59.2681 25.2991 65.8577 31.5536 75.6862 31.5536C85.6264 31.5536 92.551 24.964 92.551 15.4706C92.551 6.42389 85.9615 0.281067 76.1329 0.281067ZM85.1796 7.65245C86.855 10.5563 86.9666 14.4654 86.9666 15.694C86.9666 23.8472 82.7225 28.9848 75.7979 28.9848C69.2083 28.9848 64.8525 23.8472 64.8525 15.9173C64.8525 6.20051 70.5486 2.84988 75.9096 2.84988C78.9251 2.84988 83.0576 4.07845 85.1796 7.65245Z" fill="#072932"/>
<path d="M275.607 0.726562H270.023V1.84344C270.246 7.09276 270.246 7.98626 270.246 13.1239C267.789 13.2356 265.89 13.2356 262.651 13.2356C259.971 13.2356 257.179 13.1239 254.498 13.1239C254.386 8.5447 254.721 2.73694 254.833 1.17331V0.726562H249.249V2.06681C249.584 10.6668 249.584 11.7836 249.584 14.9109C249.584 20.3836 249.472 22.729 249.025 30.2121V30.6589H254.498V30.3238C254.386 27.3082 254.386 26.1914 254.386 22.394V16.3628C257.29 16.2512 258.295 16.2512 262.205 16.2512C266.337 16.2512 267.454 16.2512 270.023 16.3628V22.394C270.023 23.3992 269.911 27.755 269.688 30.2121V30.6589H275.049V30.2121C274.825 26.1914 274.825 24.7394 274.825 21.3888C274.825 16.3628 274.825 8.76808 275.272 0.949938L275.607 0.726562Z" fill="#072932"/>
<path d="M153.31 0.949938L153.198 0.726562H150.406L150.294 0.949938C147.949 6.7577 143.593 16.8096 137.339 30.2121L137.115 30.7706H141.583L141.694 30.5472C142.7 26.8615 143.928 23.3992 145.492 19.9368V19.8252H155.879L155.99 20.0485C157.554 23.3992 158.894 26.9732 160.011 30.5472L160.123 30.7706H166.154L165.931 30.2121C165.819 29.9887 156.661 10.1083 153.31 0.949938ZM154.65 16.9213H146.609L150.518 7.6512L154.65 16.9213Z" fill="#072932"/>
<path d="M132.536 29.3209C131.53 22.843 130.19 11.3392 129.073 1.06394V0.728875H126.84L126.728 0.952251C126.058 2.40419 125.834 2.85094 124.829 4.74963C122.707 8.77039 121.814 10.5574 117.346 18.5989L114.889 23.0664C111.985 18.1522 104.39 3.96782 102.938 0.840563L102.827 0.617188H100.593V0.952251C99.5878 10.1106 96.7956 27.4222 96.2372 30.2144L96.1255 30.6612H100.593V30.3261C100.593 26.5287 101.263 16.5885 102.157 10.1106C104.837 14.6898 107.853 20.6093 110.868 26.417C111.65 27.869 112.097 28.8742 112.767 30.5495L112.879 30.7729H114.666L114.777 30.4378C115.336 28.8742 116.118 27.3105 116.899 25.7469C119.468 20.6093 122.26 15.2483 125.164 9.99895C125.611 13.7963 126.84 26.3054 126.951 30.5495V30.8846H132.759L132.647 30.4378C132.647 29.9911 132.647 29.656 132.536 29.3209Z" fill="#072932"/>
<path d="M54.9128 27.4199C52.1206 23.8459 47.6531 18.1498 46.0895 16.0278C48.8817 15.4693 54.2427 14.1291 54.2427 8.09795C54.2427 5.64082 53.4609 3.96551 51.8973 2.73694C50.3336 1.50838 48.5466 0.726562 43.409 0.726562H34.474V2.06681C34.5857 6.42264 34.6974 10.5551 34.6974 14.2408C34.6974 20.607 34.5857 25.5212 34.3623 30.3238V30.6589H39.835V30.3238C39.4999 24.2927 39.4999 20.1602 39.4999 17.1447V16.5862H40.0584C43.7441 20.942 47.2064 25.6329 50.222 30.5472L50.3336 30.7706H57.2583L56.8115 30.2121C56.8115 29.7654 55.918 28.7602 54.9128 27.4199ZM39.7233 3.40707C40.5051 3.29538 41.2869 3.29538 42.0688 3.29538C46.8713 3.29538 49.1051 4.9707 49.1051 8.5447C49.1051 13.5706 44.8609 14.3525 41.622 14.4641C40.9519 14.4641 40.3934 14.4641 39.7233 14.4641C39.7233 14.0174 39.7233 13.5706 39.7233 12.9005C39.7233 11.672 39.7233 10.1083 39.7233 8.99145C39.7233 7.09276 39.7233 5.30576 39.7233 3.40707Z" fill="#072932"/>
<path d="M16.939 0.949938L16.8273 0.726562H14.0351L13.9234 0.949938C11.578 6.7577 7.22216 16.8096 0.967645 30.2121L0.855957 30.6589H5.32347V30.4355C6.32865 26.7498 7.55722 23.2875 9.12085 19.8252V19.7135H19.5078L19.6195 19.9368C21.1831 23.2875 22.5234 26.8615 23.6402 30.4355L23.7519 30.6589H29.7831L29.5597 30.1004C29.448 29.9887 20.4013 10.1083 16.939 0.949938ZM18.3909 16.9213H10.3494L14.2585 7.53951L18.3909 16.9213Z" fill="#072932"/>
<path d="M165.037 4.41226L165.483 4.30057C167.27 3.96551 170.063 3.74213 174.418 3.74213C174.418 7.42782 174.53 10.7785 174.53 13.794C174.53 20.2719 174.418 26.0797 174.083 30.2121V30.6589H179.779V30.2121C179.444 25.1862 179.444 19.9368 179.444 15.4693C179.444 14.3525 179.444 13.2356 179.444 12.2304C179.444 9.4382 179.444 6.42263 179.556 3.74213C184.359 3.74213 186.816 4.07719 188.044 4.30057L188.491 4.41226V0.726562H165.148L165.037 4.41226Z" fill="#072932"/>
<path d="M199.66 27.755C199.66 26.4147 199.548 23.7342 199.548 21.6122C199.548 19.8252 199.548 17.9265 199.66 16.3628C200.665 16.3628 201.782 16.2512 202.787 16.2512C204.574 16.2512 206.361 16.3628 208.148 16.6979H208.595V13.1239H208.148C205.356 13.459 202.452 13.459 199.66 13.459C199.66 11.4486 199.66 10.8901 199.66 8.32133C199.66 5.97588 199.66 5.19407 199.772 3.74213C201.335 3.63044 202.117 3.63044 203.569 3.63044C207.031 3.63044 208.595 3.85382 210.047 4.07719L210.494 4.18888V0.726562H194.634V1.17331C194.969 6.31095 194.969 13.3473 194.969 15.3577C194.969 24.7394 194.746 27.5316 194.522 30.4355V30.8822H210.941V27.4199H210.494C206.696 27.6433 203.234 27.755 199.66 27.755Z" fill="#072932"/>
<path d="M232.72 28.6497C227.135 28.6497 221.439 24.629 221.439 15.694C221.439 7.76414 225.572 2.84988 232.273 2.84988C236.74 2.84988 240.203 5.19533 241.208 7.31739L241.32 7.54077H242.101V2.17976L241.878 2.06807C238.862 0.839505 235.735 0.281067 232.496 0.281067C220.211 0.281067 215.743 8.21089 215.743 15.694C215.743 25.1874 221.998 31.3302 231.826 31.3302C235.623 31.3302 239.309 30.4367 242.66 28.5381L242.883 28.4264V23.4004L242.213 24.1822C241.096 25.5225 239.644 26.6394 237.969 27.4212C236.294 28.3147 234.507 28.6497 232.72 28.6497Z" fill="#072932"/>
</svg>
