<svg width="283" height="31" viewBox="0 0 283 31" fill="none" xmlns="http://www.w3.org/2000/svg">
<g clip-path="url(#clip0_1_202)">
<path d="M0.161931 23.6333C0.161931 26.4243 0.161931 28.5073 0.118652 30.2988H34.9151V22.425C28.553 22.4668 20.7628 22.4668 14.7037 22.4668H10.4624V18.9674H16.0021C20.7628 18.9674 21.5852 18.9674 32.4049 19.0091V11.6354H10.4624V8.55263H14.2709C20.33 8.55263 28.7694 8.55263 34.3958 8.59427V0.720703H0.118652C0.161931 2.17877 0.161931 3.72016 0.161931 5.7198V23.6333Z" fill="#072932"/>
<path d="M38.7499 23.8414C38.7499 26.5495 38.7499 28.4657 38.7065 30.2988H59.0478C75.3639 30.2988 79.1725 26.716 79.1725 16.1762V14.8432C79.1725 4.30339 75.3639 0.720703 59.0478 0.720703H38.7065C38.7499 2.17877 38.7499 3.76183 38.7499 5.76145V23.8414ZM59.0478 9.26082C67.4872 9.26082 68.5691 10.5106 68.5691 15.4264V15.593C68.5691 20.5504 67.4872 21.7586 59.0478 21.7586H49.0502V9.26082H59.0478Z" fill="#072932"/>
<path d="M93.0885 24.2581C93.0885 26.9659 93.0885 28.799 93.0452 30.2988H103.259C103.216 28.7572 103.389 26.9659 103.389 24.2581V21.5503C108.669 14.8432 115.291 6.17805 119.619 0.720703H108.236L102.956 7.80276C101.528 9.67742 100.057 11.677 98.585 13.76C97.0703 11.7604 95.6854 9.92737 94.2571 8.09436L88.5443 0.720703H76.5991C80.9703 6.13638 87.895 15.0931 93.0885 21.8418V24.2581Z" fill="#072932"/>
<path d="M137.737 30.8812C153.794 30.8812 156.347 27.59 156.347 20.9247C156.347 14.9257 154.097 11.8846 140.074 11.1764C129.341 10.6348 128.562 10.3015 128.562 9.13508C128.562 8.05195 129.471 7.67702 136.742 7.67702C144.099 7.67702 145.008 8.21859 145.008 9.51001V10.2182L155.352 10.0516C155.352 3.34447 153.924 0.136719 136.655 0.136719C121.031 0.136719 118.218 3.42779 118.218 9.59335C118.218 16.1755 120.599 18.3834 134.448 19.05C145.225 19.5499 146.047 20.1331 146.047 21.3412V21.5495C146.047 22.8826 145.614 23.2574 137.521 23.2574C128.995 23.2574 128.389 22.8826 128.389 21.3828V20.5914L118.045 20.758C118.045 28.8814 120.685 30.8812 137.737 30.8812Z" fill="#072932"/>
<path d="M171.827 23.6333C171.827 26.4243 171.827 28.4657 171.783 30.2988H182.17C182.127 28.4241 182.127 26.3827 182.127 23.6333V9.51077H188.965C190.696 9.51077 193.812 9.51077 196.409 9.55244V0.720703H157.544V9.55244C160.141 9.51077 167.152 9.51077 168.884 9.51077H171.827V23.6333Z" fill="#072932"/>
<path d="M218.621 30.8812C235.372 30.8812 239.18 27.2569 239.18 16.1755V14.8424C239.18 3.7194 235.372 0.136719 218.621 0.136719C201.916 0.136719 198.064 3.7194 198.064 14.8424V16.1755C198.064 27.2569 201.916 30.8812 218.621 30.8812ZM218.621 22.2577C209.75 22.2577 208.668 21.0497 208.668 15.5923V15.4256C208.668 9.96828 209.75 8.80182 218.621 8.80182C227.538 8.80182 228.577 9.96828 228.577 15.4256V15.5923C228.577 21.0497 227.538 22.2577 218.621 22.2577Z" fill="#072932"/>
<path d="M243.057 30.2988H253.01C252.968 26.9659 252.968 24.2581 252.968 21.342C252.968 19.7173 252.88 13.9267 252.838 9.30249H253.357C255.174 12.3436 257.251 15.718 259.545 19.384L266.34 30.2988H282.7C282.656 28.2574 282.656 26.4661 282.656 23.3416V5.96975C282.656 3.84515 282.656 2.26208 282.7 0.720703H272.747C272.789 4.01178 272.789 6.76128 272.789 9.67742C272.789 11.677 272.875 18.2592 272.963 21.7168H272.4C270.842 19.134 268.851 15.8013 266.643 12.2603L259.459 0.720703H243.057C243.099 2.26208 243.099 3.84515 243.099 5.96975V23.9248C243.099 26.591 243.099 28.4657 243.057 30.2988Z" fill="#072932"/>
</g>
<defs>
<clipPath id="clip0_1_202">
<rect width="282.582" height="30.8271" fill="white" transform="translate(0.118652 0.136719)"/>
</clipPath>
</defs>
</svg>
