<svg xmlns="http://www.w3.org/2000/svg" width="148" height="24" viewBox="0 0 148 24" fill="none" class="_logo_n7yaz_73" aria-hidden="true"><title>goPure</title><g clip-path="url(#clip0_1_572)"><path d="M65.0995 0.201912H55.4453V23.665H59.8024V16.8948H65.0995C71.2668 16.8948 75.0902 13.7088 75.0902 8.54834C75.0902 3.38788 71.2668 0.201912 65.0995 0.201912ZM64.8975 13.2079H59.8024V3.88952H64.8975C68.7208 3.88952 70.6986 5.5995 70.6986 8.54834C70.6986 11.4972 68.7208 13.2072 64.8975 13.2072V13.2079Z" fill="#062932"></path><path d="M99.7955 0.201912V13.4419C99.7955 20.2803 95.9401 24 89.5387 24C83.1373 24 79.2451 20.2803 79.2451 13.4419V0.201912H83.6045V13.2745C83.6045 18.1008 85.7819 20.1793 89.5708 20.1793C93.3597 20.1793 95.5049 18.1008 95.5049 13.2745V0.201912H99.7955Z" fill="#062932"></path><path d="M120.545 15.9557C123.731 14.716 125.539 12.1006 125.539 8.54834C125.539 3.35266 121.718 0.201912 115.551 0.201912H105.896V23.665H110.254V16.8267H115.551C115.854 16.8267 116.153 16.8267 116.456 16.7946L121.248 23.665H125.942L120.545 15.9557ZM115.349 13.24H110.254V3.88952H115.349C119.172 3.88952 121.15 5.5995 121.15 8.54834C121.15 11.4972 119.172 13.24 115.349 13.24Z" fill="#062932"></path><path d="M20.9558 11.9331H20.9855V20.8829C18.7714 22.8605 15.6204 23.867 12.37 23.867C5.23054 23.867 0 18.8043 0 11.9339C0 5.06342 5.23054 0 12.4021 0C15.9569 0 19.0398 1.14103 21.1186 3.38709L19.576 4.96168C17.5982 3.01849 15.2533 2.21398 12.503 2.21398C6.70429 2.21398 2.44817 6.33671 2.44817 11.9331C2.44817 17.5295 6.70429 21.6522 12.471 21.6522C14.7172 21.6522 16.7936 21.1505 18.6039 19.8436V14.1619H14.0042V11.8885H20.9558V11.9323V11.9331Z" fill="#062932"></path><path d="M148 20.0119V23.665H130.4V0.201912H147.531V3.85509H134.76V9.95546H146.089V13.5421H134.76V20.0119H148Z" fill="#062932"></path><path d="M38.2486 0C31.1413 0 25.9131 5.09473 25.9131 11.9331C25.9131 18.7714 31.1413 23.8662 38.2486 23.8662C45.356 23.8662 50.5521 18.8035 50.5521 11.9331C50.5521 5.06264 45.2871 0 38.2486 0ZM38.2486 21.653C32.5829 21.653 28.3589 17.5326 28.3589 11.9339C28.3589 6.33515 32.5829 2.21476 38.2486 2.21476C43.9143 2.21476 48.0695 6.3375 48.0695 11.9339C48.0695 17.5302 43.8799 21.653 38.2486 21.653Z" fill="#062932"></path></g><defs><clipPath id="clip0_1_572"><rect width="148" height="24" fill="white"></rect></clipPath></defs></svg>