<svg width="252" height="76" viewBox="0 0 252 76" fill="none" xmlns="http://www.w3.org/2000/svg">
<path d="M31.4333 67.1295C30.7859 66.8243 30.0702 66.6716 29.2965 66.6716H26.5176V74.9189H29.2965C30.0754 74.9189 30.7859 74.7663 31.4333 74.461C32.0807 74.1557 32.6017 73.6926 32.9912 73.0768C33.3806 72.461 33.5754 71.6979 33.5754 70.7874C33.5754 69.8768 33.3806 69.1295 32.9912 68.5084C32.6017 67.8927 32.0807 67.4295 31.4333 67.1243V67.1295ZM31.3859 72.2821C31.1438 72.6663 30.8228 72.9452 30.4333 73.1136C30.0386 73.2821 29.6017 73.3663 29.1228 73.3663H28.286V68.2295H29.1228C29.6017 68.2295 30.0386 68.3137 30.4333 68.4821C30.828 68.6506 31.1438 68.9242 31.3859 69.3137C31.628 69.6979 31.7543 70.1926 31.7543 70.7979C31.7543 71.4031 31.6333 71.9031 31.3859 72.2926V72.2821Z" fill="#072932"/>
<path d="M47.802 71.3402H50.8598V69.7981H47.802V68.2192H51.6493V66.6719H46.0283V74.9191H51.7703V73.377H47.802V71.3402Z" fill="#072932"/>
<path d="M67.3756 72.5665L65.3282 66.6719H63.4072L66.4493 74.9191H68.2335L71.2913 66.6719H69.4229L67.3756 72.5665Z" fill="#072932"/>
<path d="M85.2014 71.3402H88.254V69.7981H85.2014V68.2192H89.0434V66.6719H83.4277V74.9191H89.1698V73.377H85.2014V71.3402Z" fill="#072932"/>
<path d="M103.37 66.6719H101.597V74.9191H107.107V73.3665H103.37V66.6719Z" fill="#072932"/>
<path d="M124.901 67.1241C124.259 66.761 123.538 66.582 122.738 66.582C121.938 66.582 121.222 66.7662 120.575 67.1294C119.927 67.4978 119.422 67.9978 119.059 68.6399C118.696 69.282 118.517 69.9978 118.517 70.7925C118.517 71.5872 118.696 72.3135 119.059 72.9556C119.422 73.5977 119.922 74.0977 120.569 74.4661C121.211 74.8345 121.938 75.0135 122.748 75.0135C123.559 75.0135 124.259 74.8293 124.901 74.4661C125.543 74.0977 126.043 73.5977 126.406 72.9556C126.769 72.3135 126.948 71.5925 126.948 70.7925C126.948 69.9925 126.769 69.2715 126.406 68.6294C126.043 67.9873 125.543 67.4873 124.901 67.1241ZM124.827 72.1504C124.622 72.5556 124.338 72.8767 123.969 73.1135C123.601 73.3503 123.19 73.4661 122.732 73.4661C122.275 73.4661 121.854 73.3503 121.485 73.1135C121.117 72.8767 120.833 72.5556 120.627 72.1504C120.422 71.7451 120.317 71.2925 120.317 70.7872C120.317 70.282 120.422 69.8293 120.627 69.4241C120.833 69.0188 121.117 68.703 121.485 68.4662C121.854 68.2346 122.269 68.1189 122.732 68.1189C123.196 68.1189 123.601 68.2346 123.969 68.4609C124.338 68.6873 124.622 69.0083 124.827 69.4188C125.032 69.8294 125.138 70.282 125.138 70.7872C125.138 71.2925 125.032 71.7451 124.827 72.1504Z" fill="#072932"/>
<path d="M144.474 67.0034C144.069 66.7824 143.595 66.6719 143.053 66.6719H139.39V74.9191H141.163V71.8981H143.053C143.584 71.8981 144.058 71.7823 144.463 71.5455C144.869 71.3086 145.184 70.9929 145.405 70.5876C145.626 70.1876 145.737 69.7508 145.737 69.2771C145.737 68.7666 145.626 68.314 145.405 67.9192C145.184 67.5245 144.874 67.2192 144.469 66.9982L144.474 67.0034ZM143.621 70.0455C143.411 70.2455 143.126 70.3455 142.769 70.3455H141.169V68.2297H142.769C143.126 68.2297 143.411 68.3245 143.621 68.5192C143.832 68.7139 143.937 68.9666 143.937 69.2824C143.937 69.5981 143.832 69.8508 143.621 70.0508V70.0455Z" fill="#072932"/>
<path d="M163.348 71.7192C163.143 72.2981 162.969 72.8349 162.833 73.3191C162.717 72.8297 162.554 72.2981 162.343 71.7192L160.454 66.6719H158.027V74.9191H159.78V70.9508C159.78 70.335 159.769 69.7666 159.748 69.256C159.885 69.7455 160.059 70.2771 160.275 70.856L161.806 74.9191H163.822L165.343 70.856C165.543 70.2981 165.717 69.7666 165.869 69.256C165.854 69.7666 165.848 70.3297 165.848 70.9508V74.9191H167.585V66.6719H165.227L163.354 71.7192H163.348Z" fill="#072932"/>
<path d="M182.179 71.3402H185.232V69.7981H182.179V68.2192H186.021V66.6719H180.405V74.9191H186.147V73.377H182.179V71.3402Z" fill="#072932"/>
<path d="M203.731 70.3666C203.731 71.0402 203.747 71.6718 203.778 72.2665C203.51 71.7455 203.205 71.1981 202.852 70.6192L200.463 66.6719H198.573V74.9191H200.347V71.235C200.347 70.5613 200.331 69.935 200.3 69.3455C200.568 69.8666 200.873 70.4139 201.226 70.9929L203.605 74.9191H205.494V66.6719H203.731V70.3666Z" fill="#072932"/>
<path d="M217.769 68.2192H220.232V74.9191H221.995V68.2192H224.453V66.6719H217.769V68.2192Z" fill="#072932"/>
<g clip-path="url(#clip0_1_327)">
<path d="M48.1996 38.7959C45.995 37.2509 44.1194 34.9909 42.5731 32.0158C45.5091 27.9603 47.5152 24.4633 48.5758 21.5247C49.6415 18.5914 50.1692 15.3032 50.1692 11.6704C50.1692 8.03769 49.49 5.25572 48.1369 3.32453C46.7838 1.39333 44.924 0.427734 42.5678 0.427734C40.2117 0.427734 38.1794 1.4925 36.7114 3.61682C35.2434 5.74113 34.5068 9.18075 34.5068 13.9304C34.5068 20.7679 35.6091 26.7598 37.8137 31.8958C38.4615 33.4094 26.9942 41.1029 17.4442 41.1029C10.9191 41.1029 4.94774 38.8951 4.34695 31.8384H26.8532V28.999C26.8532 24.3224 25.7404 20.8253 23.5201 18.5079C21.2945 16.1905 18.1913 15.0317 14.2104 15.0317C11.5826 15.0317 9.18464 15.5902 7.01656 16.7124C4.84848 17.8346 3.14014 19.5257 1.88108 21.7857C0.622032 24.0457 -0.00488281 26.7807 -0.00488281 29.9855C-0.00488281 34.5473 1.31164 38.1748 3.93945 40.8837C6.56727 43.5873 11.0184 44.9392 16.2374 44.9392C26.9942 44.9392 34.5486 40.0068 39.7833 35.6642C41.6013 38.6393 43.7955 40.9306 46.3659 42.533C48.9362 44.1354 51.6738 44.9392 54.5732 44.9392C55.8898 44.9392 56.9503 44.8035 57.7653 44.5321V40.7636C56.9137 40.9933 55.9107 41.1133 54.7509 41.1133C52.5828 41.1133 50.399 40.3408 48.1944 38.7959H48.1996ZM7.42405 21.0602C9.20031 19.5935 11.4624 18.8576 14.2104 18.8576C16.9584 18.8576 19.1108 19.6092 20.6781 21.1176C22.2454 22.626 23.029 25.0374 23.029 28.3622H4.35217C4.62384 24.9644 5.6478 22.5269 7.42405 21.0602ZM38.8638 14.5672C38.8638 10.8197 39.1929 8.16295 39.8512 6.59712C40.5095 5.03129 41.4185 4.24837 42.5783 4.24837C43.5813 4.24837 44.4068 4.81729 45.0441 5.96035C45.6815 7.09819 46.0002 9.02416 46.0002 11.7278C46.0002 13.8156 45.8853 15.6215 45.6502 17.1456C45.4203 18.6697 44.924 20.2825 44.1717 21.9841C43.4194 23.6856 42.2857 25.6377 40.7759 27.8351C39.5012 24.0875 38.8638 19.6614 38.8638 14.562V14.5672Z" fill="#072932"/>
</g>
<path d="M112.072 57.0624H116.398V15.5683H113.825L112.54 20.7103H112.367C112.172 18.8787 111.404 17.4893 110.056 16.5314C108.714 15.5788 106.872 15.0999 104.535 15.0999C102.041 15.0999 99.809 15.7209 97.8459 16.9682C95.8775 18.2156 94.3302 19.9893 93.1986 22.284C92.0671 24.5839 91.5039 27.2734 91.5039 30.347C91.5039 33.4206 92.0565 36.1417 93.167 38.3837C94.2776 40.6258 95.7881 42.331 97.6933 43.4994C99.6038 44.6678 101.762 45.252 104.183 45.252C108.741 45.252 111.409 43.3415 112.188 39.5258H112.419L112.067 43.91V57.0571L112.072 57.0624ZM112.072 35.1469C111.451 37.2101 110.525 38.7679 109.298 39.8205C108.072 40.8732 106.367 41.3995 104.183 41.3995C101.651 41.3995 99.6248 40.389 98.1038 38.3627C96.5828 36.3364 95.8249 33.647 95.8249 30.2996C95.8249 26.9523 96.6354 24.0734 98.2512 22.0313C99.8669 19.984 101.998 18.963 104.651 18.963C106.519 18.963 108.062 19.4419 109.267 20.3945C110.472 21.3471 111.409 22.9366 112.072 25.1576V35.1522V35.1469Z" fill="#072932"/>
<path d="M150.434 40.7242C150.103 40.1979 149.939 39.4295 149.939 38.4137V15.5667H145.613V34.2664C144.755 39.0979 142.203 41.5136 137.955 41.5136C135.503 41.5136 133.798 40.7821 132.84 39.3242C131.887 37.8611 131.408 35.7506 131.408 32.9822V15.5667H122.935V19.4245H127.082V33.6243C127.082 37.3663 127.966 40.24 129.74 42.2452C131.513 44.2504 134.171 45.2557 137.719 45.2557C139.976 45.2557 141.797 44.7504 143.182 43.7347C144.566 42.7242 145.334 41.3031 145.492 39.4663H145.666C145.818 41.3347 146.387 42.7663 147.361 43.761C148.334 44.7557 149.603 45.2504 151.16 45.2504C152.213 45.2504 153.071 45.1136 153.734 44.8399V41.2768C153.266 41.4347 152.76 41.5084 152.213 41.5084C151.355 41.5084 150.76 41.2452 150.429 40.7189L150.434 40.7242Z" fill="#072932"/>
<path d="M172.788 15.0999C170.14 15.0999 167.725 15.663 165.54 16.7946C163.356 17.9261 161.635 19.6314 160.367 21.9103C159.098 24.1892 158.467 26.9471 158.467 30.1786C158.467 34.7785 159.793 38.4364 162.44 41.1679C165.088 43.8942 169.046 45.2573 174.303 45.2573C176.214 45.2573 178.003 45.0889 179.682 44.7626C181.356 44.431 182.682 44.0731 183.656 43.6836V39.7679C182.524 40.1995 181.151 40.5784 179.535 40.91C177.919 41.2416 176.193 41.4047 174.361 41.4047C170.74 41.4047 167.982 40.6468 166.093 39.1258C164.204 37.6048 163.119 35.2469 162.851 32.0522H185.524V29.1891C185.524 24.4734 184.403 20.9471 182.166 18.6103C179.924 16.2735 176.798 15.1051 172.788 15.1051V15.0999ZM162.851 28.5418C163.125 25.1155 164.156 22.6576 165.946 21.1787C167.735 19.6998 170.014 18.9577 172.782 18.9577C175.551 18.9577 177.719 19.7156 179.298 21.2366C180.877 22.7576 181.666 25.1892 181.666 28.5418H162.851Z" fill="#072932"/>
<path d="M216.291 40.7258C215.96 40.1995 215.796 39.4311 215.796 38.4153V25.2102C215.796 22.2103 215.096 19.7735 213.691 17.9051C212.286 16.0367 209.717 15.0999 205.975 15.0999C203.402 15.0999 201.397 15.6051 199.954 16.6209C198.512 17.6367 197.576 19.0577 197.149 20.8892H197.033L195.923 15.5735H193.002V44.7942H197.328V25.1576C197.797 23.0945 198.723 21.5419 200.102 20.5103C201.486 19.4787 203.17 18.963 205.154 18.963C207.528 18.963 209.175 19.5103 210.091 20.5998C211.007 21.6892 211.465 23.3471 211.465 25.5681V38.8364C211.465 40.8626 211.949 42.4416 212.928 43.5679C213.902 44.6994 215.286 45.2626 217.075 45.2626C218.049 45.2626 218.907 45.1257 219.649 44.8521V41.2889C219.259 41.4468 218.733 41.5205 218.07 41.5205C217.212 41.5205 216.617 41.2574 216.286 40.7311L216.291 40.7258Z" fill="#072932"/>
<path d="M251.444 19.4253V15.5675H235.023V7.85181H230.696V15.5675H222.165V19.4253H230.696V31.2304C230.696 36.7619 231.912 40.4829 234.349 42.3934C236.781 44.3039 239.949 45.2565 243.844 45.2565C244.896 45.2565 246.133 45.1407 247.554 44.9039C248.975 44.6723 249.996 44.4565 250.623 44.2618L250.68 40.5776C248.07 41.125 245.77 41.3934 243.786 41.3934C240.512 41.3934 238.233 40.604 236.949 39.025C235.665 37.4461 235.023 34.8462 235.023 31.2252V19.4201H251.444V19.4253Z" fill="#072932"/>
<path d="M86.6558 30.1772C86.6558 27.2194 86.1031 24.5984 84.9926 22.3194C83.8821 20.0405 82.3032 18.2669 80.2611 17.0037C78.2138 15.7406 75.8296 15.1038 73.1033 15.1038C70.377 15.1038 67.9876 15.7353 65.9455 17.0037C63.8982 18.2721 62.3298 20.0405 61.2403 22.3194C60.1509 24.5984 59.6035 27.2194 59.6035 30.1772C59.6035 33.1351 60.1509 35.7561 61.2403 38.035C62.3298 40.3139 63.8982 42.0876 65.9455 43.3507C67.9929 44.6191 70.377 45.2507 73.1033 45.2507C75.8296 45.2507 78.219 44.6191 80.2611 43.3507C82.3084 42.0876 83.8821 40.3139 84.9926 38.035C86.1031 35.7561 86.6558 33.1351 86.6558 30.1772ZM79.9927 38.2718C78.4348 40.356 76.1349 41.3981 73.0981 41.3981C70.0613 41.3981 67.7718 40.356 66.2297 38.2718C64.6877 36.1877 63.9192 33.4877 63.9192 30.1772C63.9192 26.8667 64.6877 24.1668 66.2297 22.0826C67.7666 19.9984 70.056 18.9563 73.0981 18.9563C76.1401 18.9563 78.4348 19.9984 79.9927 22.0826C81.5506 24.1668 82.3295 26.8667 82.3295 30.1772C82.3295 33.4877 81.5506 36.1877 79.9927 38.2718Z" fill="#072932"/>
<defs>
<clipPath id="clip0_1_327">
<rect width="57.7702" height="44.5114" fill="white" transform="translate(0 0.427734)"/>
</clipPath>
</defs>
</svg>
