<svg width="390" height="70" viewBox="0 0 390 70" fill="none" xmlns="http://www.w3.org/2000/svg">
<g clip-path="url(#clip0_1_1080)">
<path d="M72.4425 63.2383C68.8088 60.6919 65.7175 56.9669 63.1688 52.0634C68.008 45.3791 71.3145 39.6153 73.0624 34.772C74.819 29.9373 75.6887 24.5176 75.6887 18.5302C75.6887 12.5427 74.5693 7.95747 72.3391 4.77448C70.109 1.59149 67.0436 0 63.1602 0C59.2768 0 55.9272 1.75495 53.5076 5.25623C51.088 8.75752 49.8739 14.4267 49.8739 22.2551C49.8739 33.5246 51.6908 43.4005 55.3245 51.8655C56.3922 54.3603 37.4918 67.0406 21.7515 67.0406C10.9968 67.0406 1.15484 63.4017 0.164618 51.7709H37.2593V47.091C37.2593 39.383 35.4252 33.6193 31.7657 29.7997C28.0976 25.9801 22.9829 24.0703 16.4215 24.0703C12.0904 24.0703 8.13808 24.9908 4.56466 26.8403C0.991241 28.6899 -1.82444 31.4772 -3.89961 35.2021C-5.97478 38.9271 -7.00806 43.4349 -7.00806 48.7169C-7.00806 56.2357 -4.83817 62.2145 -0.507013 66.6793C3.82415 71.1355 11.1604 73.3636 19.7625 73.3636C37.4918 73.3636 49.9428 65.2341 58.5707 58.0767C61.5672 62.9802 65.1837 66.7568 69.4201 69.3978C73.6565 72.0388 78.1685 73.3636 82.9474 73.3636C85.1173 73.3636 86.8653 73.1399 88.2086 72.6926V66.4815C86.805 66.86 85.1518 67.0578 83.2402 67.0578C79.6668 67.0578 76.0675 65.7847 72.4338 63.2383H72.4425ZM5.23629 34.0064C8.16392 31.589 11.8923 30.376 16.4215 30.376C20.9507 30.376 24.4983 31.6148 27.0815 34.101C29.6647 36.5872 30.9563 40.5616 30.9563 46.0415H0.173229C0.620983 40.4412 2.30867 36.4237 5.23629 34.0064ZM57.0552 23.3046C57.0552 17.1279 57.5977 12.7492 58.6826 10.1684C59.7676 7.58756 61.2658 6.29716 63.1774 6.29716C64.8306 6.29716 66.1911 7.23485 67.2416 9.11884C68.2921 10.9942 68.8174 14.1686 68.8174 18.6248C68.8174 22.0659 68.6279 25.0424 68.2404 27.5544C67.8616 30.0663 67.0436 32.7246 65.8036 35.529C64.5637 38.3335 62.6952 41.5509 60.2067 45.1726C58.1057 38.9959 57.0552 31.7009 57.0552 23.296V23.3046Z" fill="#072932"/>
</g>
<path d="M177.717 93.3481H184.847V24.9576H180.605L178.489 33.4327H178.202C177.881 30.4139 176.615 28.1238 174.394 26.545C172.182 24.9749 169.146 24.1855 165.295 24.1855C161.183 24.1855 157.505 25.2091 154.269 27.265C151.025 29.3209 148.475 32.2442 146.61 36.0264C144.744 39.8172 143.816 44.2499 143.816 49.3158C143.816 54.3818 144.727 58.8666 146.557 62.562C148.388 66.2573 150.877 69.0679 154.018 70.9937C157.166 72.9194 160.723 73.8823 164.713 73.8823C172.226 73.8823 176.624 70.7334 177.907 64.4443H178.289L177.708 71.6703V93.3394L177.717 93.3481ZM177.717 57.2271C176.693 60.6275 175.166 63.1952 173.145 64.9301C171.124 66.665 168.313 67.5325 164.713 67.5325C160.541 67.5325 157.201 65.867 154.694 62.5273C152.187 59.1875 150.938 54.7548 150.938 49.2378C150.938 43.7207 152.274 38.9757 154.937 35.61C157.6 32.2356 161.113 30.5527 165.485 30.5527C168.565 30.5527 171.107 31.3421 173.093 32.9122C175.08 34.4823 176.624 37.102 177.717 40.7627V57.2358V57.2271Z" fill="#072932"/>
<path d="M240.945 66.4199C240.398 65.5524 240.129 64.2859 240.129 62.6117V24.9553H232.999V55.7762C231.585 63.7394 227.378 67.7211 220.377 67.7211C216.335 67.7211 213.524 66.5153 211.946 64.1124C210.376 61.7009 209.586 58.2224 209.586 53.6596V24.9553H195.62V31.3138H202.456V54.7179C202.456 60.8855 203.913 65.6218 206.836 68.9268C209.76 72.2319 214.14 73.8887 219.987 73.8887C223.708 73.8887 226.71 73.0559 228.991 71.3818C231.273 69.7162 232.539 67.3741 232.799 64.3467H233.086C233.337 67.4261 234.274 69.7856 235.879 71.4251C237.484 73.0646 239.574 73.88 242.142 73.88C243.877 73.88 245.291 73.6545 246.384 73.2034V67.3307C245.612 67.591 244.779 67.7124 243.877 67.7124C242.463 67.7124 241.483 67.2787 240.936 66.4112L240.945 66.4199Z" fill="#072932"/>
<path d="M277.788 24.1855C273.424 24.1855 269.443 25.1137 265.843 26.9788C262.243 28.8438 259.406 31.6544 257.316 35.4105C255.225 39.1666 254.184 43.7121 254.184 49.0383C254.184 56.6199 256.37 62.6487 260.733 67.1508C265.097 71.6443 271.62 73.891 280.286 73.891C283.435 73.891 286.384 73.6134 289.151 73.0756C291.91 72.5291 294.096 71.9392 295.701 71.2973V64.8434C293.836 65.5547 291.572 66.1793 288.908 66.7258C286.245 67.2723 283.4 67.5412 280.381 67.5412C274.413 67.5412 269.868 66.292 266.754 63.7851C263.639 61.2781 261.852 57.3919 261.41 52.1264H298.78V47.4074C298.78 39.635 296.932 33.823 293.246 29.9715C289.55 26.12 284.398 24.1942 277.788 24.1942V24.1855ZM261.41 46.3405C261.861 40.6933 263.561 36.6423 266.511 34.2047C269.46 31.7671 273.216 30.544 277.779 30.544C282.342 30.544 285.916 31.7932 288.518 34.3001C291.12 36.8071 292.422 40.8147 292.422 46.3405H261.41Z" fill="#072932"/>
<path d="M349.49 66.4221C348.944 65.5547 348.675 64.2882 348.675 62.614V40.8494C348.675 35.9049 347.521 31.8886 345.205 28.8091C342.889 25.7296 338.655 24.1855 332.488 24.1855C328.246 24.1855 324.941 25.0183 322.564 26.6925C320.187 28.3667 318.643 30.7088 317.941 33.7276H317.75L315.919 24.9663H311.105V73.1276H318.235V40.7627C319.008 37.3623 320.534 34.8032 322.807 33.103C325.088 31.4028 327.864 30.5527 331.135 30.5527C335.047 30.5527 337.762 31.4549 339.271 33.2505C340.781 35.0461 341.535 37.7786 341.535 41.4393V63.308C341.535 66.6477 342.334 69.2501 343.947 71.1064C345.552 72.9715 347.833 73.8997 350.783 73.8997C352.387 73.8997 353.801 73.6741 355.024 73.223V67.3503C354.383 67.6106 353.515 67.732 352.422 67.732C351.008 67.732 350.028 67.2983 349.481 66.4308L349.49 66.4221Z" fill="#072932"/>
<path d="M407.428 31.3157V24.9572H380.364V12.2402H373.233V24.9572H359.172V31.3157H373.233V50.7728C373.233 59.8898 375.237 66.0227 379.253 69.1716C383.261 72.3205 388.483 73.8906 394.902 73.8906C396.637 73.8906 398.676 73.6997 401.018 73.3094C403.36 72.9277 405.043 72.572 406.075 72.2511L406.171 66.1789C401.868 67.081 398.077 67.5234 394.807 67.5234C389.411 67.5234 385.655 66.2222 383.539 63.6199C381.422 61.0175 380.364 56.7322 380.364 50.7641V31.307H407.428V31.3157Z" fill="#072932"/>
<path d="M135.826 49.0374C135.826 44.1623 134.915 39.8423 133.085 36.0862C131.254 32.3301 128.652 29.4068 125.286 27.3249C121.912 25.243 117.982 24.1934 113.489 24.1934C108.995 24.1934 105.057 25.2343 101.691 27.3249C98.3168 29.4155 95.7317 32.3301 93.9361 36.0862C92.1404 39.8423 91.2383 44.1623 91.2383 49.0374C91.2383 53.9125 92.1404 58.2325 93.9361 61.9886C95.7317 65.7447 98.3168 68.668 101.691 70.7499C105.066 72.8405 108.995 73.8814 113.489 73.8814C117.982 73.8814 121.92 72.8405 125.286 70.7499C128.66 68.668 131.254 65.7447 133.085 61.9886C134.915 58.2325 135.826 53.9125 135.826 49.0374ZM124.844 62.3789C122.276 65.8141 118.485 67.5316 113.48 67.5316C108.475 67.5316 104.701 65.8141 102.16 62.3789C99.6179 58.9438 98.3514 54.4937 98.3514 49.0374C98.3514 43.5811 99.6179 39.131 102.16 35.6959C104.693 32.2607 108.466 30.5432 113.48 30.5432C118.494 30.5432 122.276 32.2607 124.844 35.6959C127.411 39.131 128.695 43.5811 128.695 49.0374C128.695 54.4937 127.411 58.9438 124.844 62.3789Z" fill="#072932"/>
<defs>
<clipPath id="clip0_1_1080">
<rect width="95.2166" height="73.3636" fill="white" transform="translate(-7)"/>
</clipPath>
</defs>
</svg>
