<svg width="1521" height="256" viewBox="0 0 1521 256" fill="none" xmlns="http://www.w3.org/2000/svg">
<g clip-path="url(#clip0_1_159)">
<path d="M306.383 230.89C292.369 221.069 280.447 206.703 270.618 187.792C289.281 162.013 302.033 139.784 308.774 121.105C315.549 102.459 318.903 81.5572 318.903 58.4656C318.903 35.3739 314.586 17.6902 305.985 5.41446C297.384 -6.86128 285.561 -12.9991 270.584 -12.9991C255.607 -12.9991 242.689 -6.2309 233.358 7.27241C224.026 20.7757 219.344 42.6398 219.344 72.8315C219.344 116.294 226.351 154.382 240.365 187.029C244.482 196.651 171.59 245.554 110.885 245.554C69.4076 245.554 31.4503 231.52 27.6314 186.664H170.693V168.615C170.693 138.888 163.62 116.659 149.506 101.928C135.36 87.1974 115.634 79.832 90.3289 79.832C73.625 79.832 58.3824 83.382 44.6009 90.5152C30.8194 97.6484 19.9602 108.398 11.957 122.764C3.95373 137.13 -0.0312805 154.515 -0.0312805 174.886C-0.0312805 203.883 8.33725 226.942 25.0411 244.161C41.7449 261.347 70.0385 269.94 103.214 269.94C171.59 269.94 219.609 238.587 252.884 210.983C264.441 229.895 278.388 244.46 294.727 254.645C311.065 264.831 328.467 269.94 346.897 269.94C355.266 269.94 362.007 269.077 367.188 267.352V243.398C361.775 244.858 355.399 245.621 348.026 245.621C334.245 245.621 320.364 240.711 306.35 230.89H306.383ZM47.1911 118.152C58.482 108.829 72.8613 104.151 90.3289 104.151C107.797 104.151 121.478 108.929 131.441 118.517C141.403 128.105 146.385 143.434 146.385 164.568H27.6646C29.3914 142.969 35.9003 127.475 47.1911 118.152ZM247.04 76.8792C247.04 53.0576 249.132 36.1702 253.316 26.2169C257.5 16.2636 263.278 11.2869 270.651 11.2869C277.027 11.2869 282.274 14.9033 286.325 22.1692C290.377 29.4019 292.402 41.6445 292.402 58.8305C292.402 72.1016 291.672 83.5811 290.177 93.2689C288.716 102.957 285.561 113.209 280.779 124.025C275.997 134.841 268.791 147.249 259.194 161.217C251.091 137.395 247.04 109.261 247.04 76.846V76.8792Z" fill="#072932"/>
</g>
<path d="M712.391 347.003H739.891V83.2435H723.532L715.369 115.929H714.265C713.027 104.287 708.143 95.4546 699.578 89.3658C691.047 83.3104 679.338 80.266 664.484 80.266C648.626 80.266 634.441 84.2137 621.962 92.1425C609.45 100.071 599.615 111.346 592.422 125.932C585.229 140.552 581.649 157.647 581.649 177.185C581.649 196.723 585.162 214.019 592.221 228.271C599.28 242.523 608.882 253.362 620.992 260.789C633.137 268.216 646.853 271.93 662.242 271.93C691.214 271.93 708.176 259.786 713.127 235.531H714.6L712.358 263.399V346.97L712.391 347.003ZM712.391 207.696C708.444 220.811 702.556 230.713 694.761 237.404C686.966 244.095 676.126 247.441 662.242 247.441C646.151 247.441 633.27 241.017 623.602 228.137C613.933 215.257 609.116 198.162 609.116 176.884C609.116 155.607 614.268 137.307 624.539 124.326C634.809 111.312 648.359 104.822 665.22 104.822C677.096 104.822 686.899 107.866 694.56 113.922C702.221 119.977 708.176 130.081 712.391 144.199V207.73V207.696Z" fill="#072932"/>
<path d="M956.242 243.148C954.134 239.802 953.097 234.918 953.097 228.461V83.2325H925.597V202.098C920.144 232.81 903.918 248.166 876.92 248.166C861.33 248.166 850.491 243.516 844.402 234.249C838.346 224.948 835.302 211.533 835.302 193.935V83.2325H781.439V107.755H807.802V198.017C807.802 221.803 813.422 240.07 824.697 252.816C835.971 265.562 852.866 271.952 875.415 271.952C889.767 271.952 901.342 268.741 910.141 262.284C918.94 255.861 923.824 246.828 924.828 235.152H925.932C926.902 247.028 930.515 256.128 936.704 262.451C942.893 268.774 950.956 271.919 960.859 271.919C967.55 271.919 973.003 271.049 977.218 269.309V246.66C974.241 247.664 971.029 248.132 967.55 248.132C962.097 248.132 958.316 246.46 956.208 243.114L956.242 243.148Z" fill="#072932"/>
<path d="M1098.33 80.266C1081.51 80.266 1066.15 83.8457 1052.27 91.0385C1038.38 98.2314 1027.44 109.071 1019.38 123.557C1011.32 138.043 1007.3 155.573 1007.3 176.115C1007.3 205.354 1015.73 228.606 1032.56 245.969C1049.39 263.299 1074.55 271.963 1107.97 271.963C1120.11 271.963 1131.49 270.893 1142.16 268.819C1152.8 266.711 1161.23 264.436 1167.42 261.96V237.07C1160.22 239.813 1151.49 242.222 1141.22 244.329C1130.95 246.437 1119.98 247.474 1108.34 247.474C1085.32 247.474 1067.79 242.657 1055.78 232.988C1043.77 223.32 1036.88 208.332 1035.17 188.025H1179.29V169.825C1179.29 139.849 1172.17 117.435 1157.95 102.581C1143.7 87.7265 1123.83 80.2994 1098.33 80.2994V80.266ZM1035.17 165.71C1036.91 143.931 1043.47 128.307 1054.84 118.907C1066.22 109.506 1080.7 104.789 1098.3 104.789C1115.9 104.789 1129.68 109.606 1139.72 119.275C1149.75 128.943 1154.77 144.399 1154.77 165.71H1035.17Z" fill="#072932"/>
<path d="M1374.86 243.159C1372.76 239.813 1371.72 234.929 1371.72 228.472V144.533C1371.72 125.464 1367.27 109.974 1358.34 98.0975C1349.41 86.221 1333.08 80.266 1309.29 80.266C1292.93 80.266 1280.19 83.4777 1271.02 89.9345C1261.85 96.3913 1255.9 105.424 1253.19 117.067H1252.45L1245.39 83.2769H1226.83V269.019H1254.33V144.199C1257.3 131.084 1263.19 121.215 1271.96 114.658C1280.76 108.101 1291.46 104.822 1304.07 104.822C1319.16 104.822 1329.63 108.301 1335.45 115.227C1341.28 122.152 1344.19 132.69 1344.19 146.808V231.148C1344.19 244.028 1347.26 254.065 1353.49 261.224C1359.68 268.417 1368.47 271.997 1379.85 271.997C1386.04 271.997 1391.49 271.127 1396.21 269.387V246.738C1393.73 247.742 1390.39 248.21 1386.17 248.21C1380.72 248.21 1376.94 246.538 1374.83 243.192L1374.86 243.159Z" fill="#072932"/>
<path d="M1598.31 107.762V83.2393H1493.93V34.1942H1466.43V83.2393H1412.2V107.762H1466.43V182.802C1466.43 217.963 1474.16 241.615 1489.65 253.76C1505.11 265.904 1525.25 271.959 1550.01 271.959C1556.7 271.959 1564.56 271.223 1573.59 269.718C1582.62 268.246 1589.11 266.874 1593.1 265.636L1593.46 242.218C1576.87 245.697 1562.25 247.403 1549.64 247.403C1528.83 247.403 1514.34 242.385 1506.18 232.348C1498.02 222.312 1493.93 205.785 1493.93 182.768V107.728H1598.31V107.762Z" fill="#072932"/>
<path d="M550.831 176.111C550.831 157.309 547.319 140.649 540.26 126.163C533.201 111.676 523.164 100.402 510.184 92.3729C497.17 84.3437 482.014 80.2957 464.685 80.2957C447.355 80.2957 432.166 84.3103 419.186 92.3729C406.172 100.436 396.202 111.676 389.277 126.163C382.352 140.649 378.873 157.309 378.873 176.111C378.873 194.913 382.352 211.573 389.277 226.059C396.202 240.545 406.172 251.82 419.186 259.849C432.2 267.912 447.355 271.926 464.685 271.926C482.014 271.926 497.203 267.912 510.184 259.849C523.198 251.82 533.201 240.545 540.26 226.059C547.319 211.573 550.831 194.913 550.831 176.111ZM508.477 227.565C498.575 240.813 483.955 247.437 464.651 247.437C445.348 247.437 430.795 240.813 420.992 227.565C411.19 214.317 406.306 197.154 406.306 176.111C406.306 155.068 411.19 137.905 420.992 124.657C430.761 111.409 445.314 104.785 464.651 104.785C483.988 104.785 498.575 111.409 508.477 124.657C518.38 137.905 523.331 155.068 523.331 176.111C523.331 197.154 518.38 214.317 508.477 227.565Z" fill="#072932"/>
<defs>
<clipPath id="clip0_1_159">
<rect width="367.219" height="282.939" fill="white" transform="translate(-6.10352e-05 -12.9991)"/>
</clipPath>
</defs>
</svg>
