<svg width="241" height="31" viewBox="0 0 241 31" fill="none" xmlns="http://www.w3.org/2000/svg">
<g clip-path="url(#clip0_1_210)">
<path d="M240.061 30.2878C239.678 30.6651 239.175 30.8998 238.637 30.9521C238.099 31.0043 237.56 30.8708 237.11 30.5743C236.661 30.2778 236.329 29.8367 236.172 29.326C236.015 28.8153 236.042 28.2666 236.249 27.7734C236.455 27.2802 236.829 26.8729 237.305 26.6209C237.782 26.369 238.332 26.2879 238.862 26.3916C239.393 26.4952 239.87 26.7771 240.214 27.1893C240.557 27.6015 240.745 28.1185 240.746 28.6522C240.752 28.9567 240.694 29.259 240.576 29.5404C240.458 29.8218 240.283 30.0762 240.061 30.2878ZM236.991 27.2522C236.801 27.4346 236.652 27.6532 236.551 27.8947C236.45 28.1362 236.401 28.3954 236.405 28.6565C236.4 28.9186 236.449 29.1789 236.549 29.4217C236.649 29.6646 236.798 29.8849 236.986 30.0694C237.172 30.2548 237.394 30.4019 237.638 30.5024C237.882 30.6028 238.144 30.6545 238.409 30.6545C238.673 30.6545 238.935 30.6028 239.179 30.5024C239.423 30.4019 239.645 30.2548 239.831 30.0694C240.206 29.6944 240.417 29.1882 240.417 28.6608C240.417 28.1334 240.206 27.6273 239.831 27.2522C239.645 27.0669 239.424 26.9199 239.18 26.8195C238.936 26.7192 238.675 26.6675 238.411 26.6675C238.147 26.6675 237.885 26.7192 237.641 26.8195C237.398 26.9199 237.176 27.0669 236.991 27.2522ZM238.365 27.3806C238.602 27.3687 238.838 27.3991 239.063 27.4705C239.191 27.5208 239.299 27.6105 239.371 27.7262C239.443 27.842 239.475 27.9776 239.462 28.1128C239.469 28.2108 239.45 28.3089 239.406 28.397C239.361 28.485 239.294 28.5599 239.211 28.6137C239.098 28.6792 238.972 28.7215 238.842 28.7379C238.928 28.7472 239.011 28.7741 239.086 28.8168C239.16 28.8596 239.225 28.9173 239.276 28.9862C239.362 29.1003 239.41 29.2379 239.415 29.3801V29.5642V29.7526C239.414 29.7977 239.422 29.8426 239.436 29.8853V29.9153H239.003V29.8896V29.8596V29.7783V29.5771C239.018 29.4681 239.003 29.3572 238.96 29.2556C238.918 29.1541 238.849 29.0655 238.76 28.9991C238.601 28.933 238.429 28.9051 238.257 28.9177H237.901V29.911H237.468V27.3763L238.365 27.3806ZM238.851 27.7788C238.679 27.7048 238.492 27.6725 238.305 27.6846H237.919V28.6009H238.326C238.473 28.6079 238.62 28.5891 238.76 28.5452C238.842 28.5172 238.912 28.4635 238.959 28.3924C239.007 28.3212 239.03 28.2365 239.024 28.1513C239.034 28.0794 239.023 28.0063 238.992 27.9404C238.961 27.8745 238.912 27.8185 238.851 27.7788Z" fill="#072932"/>
<path d="M67.3046 30.8096H55.913C55.683 30.8096 55.4624 30.7194 55.2997 30.5588C55.1371 30.3982 55.0457 30.1804 55.0457 29.9533V26.0357C55.0457 25.8086 55.1371 25.5908 55.2997 25.4302C55.4624 25.2696 55.683 25.1794 55.913 25.1794H67.3046C68.117 25.1749 68.8946 24.8531 69.4674 24.2843C70.0402 23.7155 70.3618 22.9459 70.3618 22.1438C70.3611 21.5288 70.1713 20.9284 69.8174 20.4223C69.4635 19.9161 68.9623 19.528 68.38 19.3094L59.9545 16.1368C58.4076 15.5777 57.0594 14.5852 56.075 13.281C55.0907 11.9768 54.513 10.4175 54.4126 8.79397C54.3622 7.6951 54.538 6.59755 54.9294 5.56768C55.3208 4.53781 55.9197 3.59701 56.6899 2.80217C57.46 2.00734 58.3854 1.37498 59.4102 0.943331C60.4349 0.511681 61.5376 0.289709 62.6517 0.290837H73.4623C73.6923 0.290837 73.9129 0.381055 74.0755 0.541643C74.2382 0.702232 74.3295 0.920037 74.3295 1.14714V5.06047C74.3295 5.28758 74.2382 5.50538 74.0755 5.66597C73.9129 5.82656 73.6923 5.91678 73.4623 5.91678H62.7558C62.2367 5.90662 61.7265 6.05001 61.2906 6.32851C60.8548 6.607 60.5133 7.00786 60.3101 7.47954C60.1819 7.79011 60.1178 8.12279 60.1214 8.45814C60.125 8.79348 60.1964 9.12474 60.3312 9.43253C60.4661 9.74032 60.6618 10.0185 60.9068 10.2507C61.1519 10.4829 61.4414 10.6645 61.7584 10.7849L70.4311 14.0431C72.0907 14.6702 73.5183 15.78 74.5249 17.2258C75.5316 18.6716 76.0698 20.3851 76.0684 22.1395C76.0696 23.277 75.8438 24.4035 75.404 25.4548C74.9642 26.5061 74.3189 27.4616 73.5052 28.2667C72.6914 29.0718 71.7249 29.7107 70.661 30.147C69.5972 30.5834 68.4566 30.8085 67.3046 30.8096Z" fill="#072932"/>
<path d="M91.9439 30.9638H86.3717C84.1865 30.9638 82.0909 30.1067 80.5457 28.5811C79.0006 27.0555 78.1326 24.9864 78.1326 22.8289V8.27164C78.1326 6.11413 79.0006 4.04498 80.5457 2.51938C82.0909 0.993788 84.1865 0.136719 86.3717 0.136719L91.9439 0.136719C94.129 0.136719 96.2247 0.993788 97.7698 2.51938C99.3149 4.04498 100.183 6.11413 100.183 8.27164V22.8289C100.183 24.9864 99.3149 27.0555 97.7698 28.5811C96.2247 30.1067 94.129 30.9638 91.9439 30.9638ZM86.337 5.76266C85.6757 5.76266 85.0415 6.02204 84.5739 6.48373C84.1063 6.94542 83.8436 7.57161 83.8436 8.22454V22.8717C83.8436 23.5246 84.1063 24.1508 84.5739 24.6125C85.0415 25.0742 85.6757 25.3336 86.337 25.3336H91.9742C92.6355 25.3336 93.2697 25.0742 93.7373 24.6125C94.205 24.1508 94.4676 23.5246 94.4676 22.8717V8.22883C94.4676 7.57589 94.205 6.9497 93.7373 6.48801C93.2697 6.02632 92.6355 5.76694 91.9742 5.76694L86.337 5.76266Z" fill="#072932"/>
<path d="M136.027 30.9638H130.455C128.27 30.9638 126.174 30.1067 124.629 28.5811C123.084 27.0555 122.216 24.9864 122.216 22.8289V8.27164C122.216 6.11413 123.084 4.04498 124.629 2.51938C126.174 0.993788 128.27 0.136719 130.455 0.136719L136.027 0.136719C138.212 0.136719 140.308 0.993788 141.853 2.51938C143.398 4.04498 144.266 6.11413 144.266 8.27164V22.8289C144.266 24.9864 143.398 27.0555 141.853 28.5811C140.308 30.1067 138.212 30.9638 136.027 30.9638ZM130.42 5.76266C129.759 5.76266 129.125 6.02204 128.657 6.48373C128.19 6.94542 127.927 7.57161 127.927 8.22454V22.8717C127.927 23.5246 128.19 24.1508 128.657 24.6125C129.125 25.0742 129.759 25.3336 130.42 25.3336H136.058C136.719 25.3336 137.353 25.0742 137.821 24.6125C138.288 24.1508 138.551 23.5246 138.551 22.8717V8.22883C138.551 7.57589 138.288 6.9497 137.821 6.48801C137.353 6.02632 136.719 5.76694 136.058 5.76694L130.42 5.76266Z" fill="#072932"/>
<path d="M208.601 30.9638H203.033C200.848 30.9638 198.752 30.1067 197.207 28.5811C195.662 27.0555 194.794 24.9864 194.794 22.8289V8.27164C194.794 6.11413 195.662 4.04498 197.207 2.51938C198.752 0.993788 200.848 0.136719 203.033 0.136719L208.605 0.136719C210.79 0.136719 212.886 0.993788 214.431 2.51938C215.976 4.04498 216.844 6.11413 216.844 8.27164V22.8289C216.844 23.8975 216.631 24.9557 216.217 25.943C215.802 26.9302 215.195 27.8272 214.43 28.5826C213.664 29.3381 212.755 29.9372 211.755 30.3458C210.755 30.7544 209.683 30.9644 208.601 30.9638ZM202.998 5.76266C202.337 5.76266 201.703 6.02204 201.235 6.48373C200.768 6.94542 200.505 7.57161 200.505 8.22454V22.8717C200.505 23.5246 200.768 24.1508 201.235 24.6125C201.703 25.0742 202.337 25.3336 202.998 25.3336H208.636C209.297 25.3336 209.931 25.0742 210.399 24.6125C210.866 24.1508 211.129 23.5246 211.129 22.8717V8.22883C211.129 7.57589 210.866 6.9497 210.399 6.48801C209.931 6.02632 209.297 5.76694 208.636 5.76694L202.998 5.76266Z" fill="#072932"/>
<path d="M107.776 0.290843H103.812C103.582 0.290843 103.362 0.381061 103.199 0.54165C103.037 0.702239 102.945 0.920044 102.945 1.14715V29.9491C102.945 30.1762 103.037 30.394 103.199 30.5546C103.362 30.7152 103.582 30.8054 103.812 30.8054H120.109C120.339 30.8054 120.559 30.7152 120.722 30.5546C120.884 30.394 120.976 30.1762 120.976 29.9491V26.0357C120.976 25.8086 120.884 25.5908 120.722 25.4302C120.559 25.2696 120.339 25.1794 120.109 25.1794H108.648V1.15143C108.648 1.03826 108.626 0.926097 108.582 0.821429C108.539 0.716762 108.475 0.621666 108.393 0.541639C108.312 0.461613 108.216 0.398244 108.11 0.355196C108.004 0.312149 107.891 0.290276 107.776 0.290843Z" fill="#072932"/>
<path d="M186.065 12.3948H175.931V1.15147C175.931 0.924367 175.839 0.706562 175.677 0.545973C175.514 0.385384 175.293 0.295166 175.063 0.295166H171.1C170.87 0.295166 170.649 0.385384 170.487 0.545973C170.324 0.706562 170.233 0.924367 170.233 1.15147V29.9491C170.233 30.1762 170.324 30.394 170.487 30.5546C170.649 30.7152 170.87 30.8054 171.1 30.8054H175.063C175.293 30.8054 175.514 30.7152 175.677 30.5546C175.839 30.394 175.931 30.1762 175.931 29.9491V18.0207H186.065V29.9491C186.065 30.1762 186.156 30.394 186.319 30.5546C186.481 30.7152 186.702 30.8054 186.932 30.8054H190.913C191.143 30.8054 191.363 30.7152 191.526 30.5546C191.689 30.394 191.78 30.1762 191.78 29.9491V1.15147C191.78 0.924367 191.689 0.706562 191.526 0.545973C191.363 0.385384 191.143 0.295166 190.913 0.295166H186.949C186.719 0.295166 186.499 0.385384 186.336 0.545973C186.173 0.706562 186.082 0.924367 186.082 1.15147L186.065 12.3948Z" fill="#072932"/>
<path d="M239.875 0.295166H218.995C218.765 0.295166 218.544 0.385384 218.382 0.545973C218.219 0.706562 218.128 0.924367 218.128 1.15147V5.0648C218.128 5.29191 218.219 5.50971 218.382 5.6703C218.544 5.83089 218.765 5.92111 218.995 5.92111H226.714V29.9491C226.714 30.1762 226.805 30.394 226.968 30.5546C227.13 30.7152 227.351 30.8054 227.581 30.8054H231.544C231.774 30.8054 231.995 30.7152 232.158 30.5546C232.32 30.394 232.412 30.1762 232.412 29.9491V5.92539H239.875C240.105 5.92539 240.325 5.83517 240.488 5.67458C240.65 5.51399 240.742 5.29619 240.742 5.06908V1.15576C240.742 1.04294 240.72 0.931132 240.677 0.826745C240.634 0.722359 240.57 0.627454 240.489 0.547485C240.409 0.467515 240.313 0.404057 240.207 0.360756C240.102 0.317455 239.989 0.295165 239.875 0.295166Z" fill="#072932"/>
<path d="M159.396 30.8096H147.983C147.753 30.8096 147.532 30.7194 147.369 30.5588C147.207 30.3982 147.115 30.1804 147.115 29.9533V26.0357C147.115 25.8086 147.207 25.5908 147.369 25.4302C147.532 25.2696 147.753 25.1794 147.983 25.1794H159.374C160.19 25.1794 160.972 24.8596 161.548 24.2903C162.125 23.721 162.449 22.9489 162.449 22.1438C162.448 21.5288 162.258 20.9284 161.904 20.4223C161.551 19.9161 161.049 19.528 160.467 19.3094L152.033 16.1368C150.486 15.5777 149.138 14.5852 148.153 13.281C147.169 11.9768 146.591 10.4175 146.491 8.79397C146.441 7.6951 146.616 6.59755 147.008 5.56768C147.399 4.53781 147.998 3.59701 148.768 2.80217C149.538 2.00734 150.464 1.37498 151.489 0.943331C152.513 0.511681 153.616 0.289709 154.73 0.290837H165.541C165.771 0.290837 165.991 0.381055 166.154 0.541643C166.317 0.702232 166.408 0.920037 166.408 1.14714V5.06047C166.408 5.28758 166.317 5.50538 166.154 5.66597C165.991 5.82656 165.771 5.91678 165.541 5.91678H154.847C154.328 5.90662 153.818 6.05001 153.382 6.32851C152.946 6.607 152.605 7.00786 152.401 7.47954C152.273 7.79011 152.209 8.12279 152.213 8.45814C152.216 8.79348 152.288 9.12474 152.423 9.43253C152.557 9.74032 152.753 10.0185 152.998 10.2507C153.243 10.4829 153.533 10.6645 153.85 10.7849L162.523 14.0431C164.182 14.6702 165.61 15.78 166.616 17.2258C167.623 18.6716 168.161 20.3851 168.16 22.1395C168.161 23.277 167.935 24.4035 167.495 25.4548C167.056 26.5061 166.41 27.4616 165.597 28.2667C164.783 29.0718 163.816 29.7107 162.752 30.147C161.689 30.5834 160.548 30.8085 159.396 30.8096Z" fill="#072932"/>
<path d="M6.4917 28.241V11.877H12.9095V21.2664H44.4912C44.727 21.2664 44.9531 21.3588 45.1198 21.5234C45.2865 21.688 45.3802 21.9113 45.3802 22.1441V29.8937C45.3802 30.1265 45.2865 30.3497 45.1198 30.5143C44.9531 30.6789 44.727 30.7714 44.4912 30.7714H9.05883C8.37873 30.7714 7.72643 30.5049 7.24512 30.0305C6.76382 29.5561 6.49285 28.9125 6.4917 28.241Z" fill="#072932"/>
<path d="M39.8728 19.1761H33.4507V9.78664H1.86895C1.75184 9.78664 1.63589 9.7638 1.52775 9.71942C1.41962 9.67504 1.32143 9.61001 1.23882 9.52805C1.15622 9.44609 1.09083 9.34883 1.04641 9.24185C1.00199 9.13486 0.97942 9.02027 0.979991 8.90464V1.15934C0.97942 1.04372 1.00199 0.929123 1.04641 0.822139C1.09083 0.715155 1.15622 0.61789 1.23882 0.535933C1.32143 0.453975 1.41962 0.38894 1.52775 0.344563C1.63589 0.300186 1.75184 0.277342 1.86895 0.277344H37.3057C37.9865 0.277344 38.6395 0.544389 39.1209 1.01973C39.6024 1.49507 39.8728 2.13978 39.8728 2.81201V19.1761Z" fill="#072932"/>
</g>
<defs>
<clipPath id="clip0_1_210">
<rect width="239.766" height="30.8271" fill="white" transform="translate(0.97998 0.136719)"/>
</clipPath>
</defs>
</svg>
